Output #0, mpeg, to '02.mpg':
    Stream #0:0: Video: mpeg1video, yuv420p, 640x480, q=2-31, 400 kb/s, 25 tbn
[mpeg @ 0x121f14570] VBV buffer size not set, using default size of 230KB
If you want the mpeg file to be compliant to some specification
Like DVD, VCD or others, make sure you set the correct buffer size
pts:0 pts_time:0 dts:-3600 dts_time:-0.04 duration:0 duration_time:0 stream_index:0
[mpeg @ 0x121f14570] buffer underflow st=0 bufi=10406 size=29897
[mpeg @ 0x121f14570] buffer underflow st=0 bufi=12447 size=29897
[mpeg @ 0x121f14570] buffer underflow st=0 bufi=14488 size=29897
[mpeg @ 0x121f14570] buffer underflow st=0 bufi=16529 size=29897
[mpeg @ 0x121f14570] buffer underflow st=0 bufi=18570 size=29897
[mpeg @ 0x121f14570] buffer underflow st=0 bufi=20611 size=29897
[mpeg @ 0x121f14570] buffer underflow st=0 bufi=22652 size=29897
[mpeg @ 0x121f14570] buffer underflow st=0 bufi=24693 size=29897
[mpeg @ 0x121f14570] buffer underflow st=0 bufi=26734 size=29897
[mpeg @ 0x121f14570] buffer underflow st=0 bufi=28775 size=29897
pts:3600 pts_time:0.04 dts:0 dts_time:0 duration:0 duration_time:0 stream_index:0
[mpeg @ 0x121f14570] buffer underflow st=0 bufi=910 size=11480
[mpeg @ 0x121f14570] buffer underflow st=0 bufi=2951 size=11480
[mpeg @ 0x121f14570] buffer underflow st=0 bufi=4992 size=11480
[mpeg @ 0x121f14570] buffer underflow st=0 bufi=7033 size=11480
[mpeg @ 0x121f14570] buffer underflow st=0 bufi=9074 size=11480
[mpeg @ 0x121f14570] buffer underflow st=0 bufi=11115 size=11480
pts:7200 pts_time:0.08 dts:3600 dts_time:0.04 duration:0 duration_time:0 stream_index:0
[mpeg @ 0x121f14570] buffer underflow st=0 bufi=1667 size=33173
[mpeg @ 0x121f14570] buffer underflow st=0 bufi=3708 size=33173
[mpeg @ 0x121f14570] buffer underflow st=0 bufi=5749 size=33173
[mpeg @ 0x121f14570] buffer underflow st=0 bufi=7790 size=33173
[mpeg @ 0x121f14570] buffer underflow st=0 bufi=9831 size=33173
[mpeg @ 0x121f14570] buffer underflow st=0 bufi=11872 size=33173
[mpeg @ 0x121f14570] buffer underflow st=0 bufi=13913 size=33173
[mpeg @ 0x121f14570] buffer underflow st=0 bufi=15954 size=33173
[mpeg @ 0x121f14570] buffer underflow st=0 bufi=17995 size=33173
[mpeg @ 0x121f14570] buffer underflow st=0 bufi=20036 size=33173
[mpeg @ 0x121f14570] buffer underflow st=0 bufi=22077 size=33173
[mpeg @ 0x121f14570] buffer underflow st=0 bufi=24118 size=33173
[mpeg @ 0x121f14570] buffer underflow st=0 bufi=26159 size=33173
[mpeg @ 0x121f14570] buffer underflow st=0 bufi=28200 size=33173
[mpeg @ 0x121f14570] buffer underflow st=0 bufi=30241 size=33173
[mpeg @ 0x121f14570] buffer underflow st=0 bufi=32282 size=33173
pts:10800 pts_time:0.12 dts:7200 dts_time:0.08 duration:0 duration_time:0 stream_index:0
[mpeg @ 0x121f14570] buffer underflow st=0 bufi=1141 size=3691
[mpeg @ 0x121f14570] buffer underflow st=0 bufi=3182 size=3691
pts:14400 pts_time:0.16 dts:10800 dts_time:0.12 duration:0 duration_time:0 stream_index:0
pts:18000 pts_time:0.2 dts:14400 dts_time:0.16 duration:0 duration_time:0 stream_index:0
pts:21600 pts_time:0.24 dts:18000 dts_time:0.2 duration:0 duration_time:0 stream_index:0
pts:25200 pts_time:0.28 dts:21600 dts_time:0.24 duration:0 duration_time:0 stream_index:0
pts:28800 pts_time:0.32 dts:25200 dts_time:0.28 duration:0 duration_time:0 stream_index:0
[mpeg @ 0x121f14570] buffer underflow st=0 bufi=73 size=186
pts:32400 pts_time:0.36 dts:28800 dts_time:0.32 duration:0 duration_time:0 stream_index:0
pts:36000 pts_time:0.4 dts:32400 dts_time:0.36 duration:0 duration_time:0 stream_index:0
pts:39600 pts_time:0.44 dts:36000 dts_time:0.4 duration:0 duration_time:0 stream_index:0
[mpeg @ 0x121f14570] buffer underflow st=0 bufi=1535 size=20743
[mpeg @ 0x121f14570] buffer underflow st=0 bufi=3576 size=20743
[mpeg @ 0x121f14570] buffer underflow st=0 bufi=5617 size=20743
[mpeg @ 0x121f14570] buffer underflow st=0 bufi=7646 size=20743
[mpeg @ 0x121f14570] buffer underflow st=0 bufi=9687 size=20743
[mpeg @ 0x121f14570] buffer underflow st=0 bufi=11728 size=20743
[mpeg @ 0x121f14570] buffer underflow st=0 bufi=13769 size=20743
[mpeg @ 0x121f14570] buffer underflow st=0 bufi=15810 size=20743
[mpeg @ 0x121f14570] buffer underflow st=0 bufi=17851 size=20743
[mpeg @ 0x121f14570] buffer underflow st=0 bufi=19892 size=20743
pts:43200 pts_time:0.48 dts:39600 dts_time:0.44 duration:0 duration_time:0 stream_index:0
[mpeg @ 0x121f14570] buffer underflow st=0 bufi=1181 size=16592
[mpeg @ 0x121f14570] buffer underflow st=0 bufi=3222 size=16592
[mpeg @ 0x121f14570] buffer underflow st=0 bufi=5263 size=16592
[mpeg @ 0x121f14570] buffer underflow st=0 bufi=7304 size=16592
[mpeg @ 0x121f14570] buffer underflow st=0 bufi=9345 size=16592
[mpeg @ 0x121f14570] buffer underflow st=0 bufi=11386 size=16592
[mpeg @ 0x121f14570] buffer underflow st=0 bufi=13427 size=16592
[mpeg @ 0x121f14570] buffer underflow st=0 bufi=15468 size=16592
pts:46800 pts_time:0.52 dts:43200 dts_time:0.48 duration:0 duration_time:0 stream_index:0
[mpeg @ 0x121f14570] buffer underflow st=0 bufi=908 size=1269
pts:50400 pts_time:0.56 dts:46800 dts_time:0.52 duration:0 duration_time:0 stream_index:0
[mpeg @ 0x121f14570] buffer underflow st=0 bufi=1671 size=22620
[mpeg @ 0x121f14570] buffer underflow st=0 bufi=3712 size=22620
[mpeg @ 0x121f14570] buffer underflow st=0 bufi=5753 size=22620
[mpeg @ 0x121f14570] buffer underflow st=0 bufi=7794 size=22620
[mpeg @ 0x121f14570] buffer underflow st=0 bufi=9835 size=22620
[mpeg @ 0x121f14570] buffer underflow st=0 bufi=11876 size=22620
[mpeg @ 0x121f14570] buffer underflow st=0 bufi=13917 size=22620
[mpeg @ 0x121f14570] buffer underflow st=0 bufi=15958 size=22620
[mpeg @ 0x121f14570] buffer underflow st=0 bufi=17999 size=22620
[mpeg @ 0x121f14570] buffer underflow st=0 bufi=20040 size=22620
[mpeg @ 0x121f14570] buffer underflow st=0 bufi=22081 size=22620
pts:54000 pts_time:0.6 dts:50400 dts_time:0.56 duration:0 duration_time:0 stream_index:0
[mpeg @ 0x121f14570] buffer underflow st=0 bufi=1493 size=1919
pts:57600 pts_time:0.64 dts:54000 dts_time:0.6 duration:0 duration_time:0 stream_index:0
[mpeg @ 0x121f14570] buffer underflow st=0 bufi=1606 size=7778
[mpeg @ 0x121f14570] buffer underflow st=0 bufi=3647 size=7778
[mpeg @ 0x121f14570] buffer underflow st=0 bufi=5688 size=7778
[mpeg @ 0x121f14570] buffer underflow st=0 bufi=7729 size=7778
pts:61200 pts_time:0.68 dts:57600 dts_time:0.64 duration:0 duration_time:0 stream_index:0
pts:64800 pts_time:0.72 dts:61200 dts_time:0.68 duration:0 duration_time:0 stream_index:0
[mpeg @ 0x121f14570] buffer underflow st=0 bufi=1220 size=8025
[mpeg @ 0x121f14570] buffer underflow st=0 bufi=3261 size=8025
[mpeg @ 0x121f14570] buffer underflow st=0 bufi=5302 size=8025
[mpeg @ 0x121f14570] buffer underflow st=0 bufi=7343 size=8025
pts:68400 pts_time:0.76 dts:64800 dts_time:0.72 duration:0 duration_time:0 stream_index:0
pts:72000 pts_time:0.8 dts:68400 dts_time:0.76 duration:0 duration_time:0 stream_index:0
[mpeg @ 0x121f14570] buffer underflow st=0 bufi=636 size=5382
[mpeg @ 0x121f14570] buffer underflow st=0 bufi=2677 size=5382
[mpeg @ 0x121f14570] buffer underflow st=0 bufi=4718 size=5382
pts:75600 pts_time:0.84 dts:72000 dts_time:0.8 duration:0 duration_time:0 stream_index:0
pts:79200 pts_time:0.88 dts:75600 dts_time:0.84 duration:0 duration_time:0 stream_index:0
[mpeg @ 0x121f14570] buffer underflow st=0 bufi=465 size=9347
[mpeg @ 0x121f14570] buffer underflow st=0 bufi=2506 size=9347
[mpeg @ 0x121f14570] buffer underflow st=0 bufi=4547 size=9347
[mpeg @ 0x121f14570] buffer underflow st=0 bufi=6588 size=9347
[mpeg @ 0x121f14570] buffer underflow st=0 bufi=8629 size=9347
pts:82800 pts_time:0.92 dts:79200 dts_time:0.88 duration:0 duration_time:0 stream_index:0
[mpeg @ 0x121f14570] buffer underflow st=0 bufi=1314 size=8203
[mpeg @ 0x121f14570] buffer underflow st=0 bufi=3355 size=8203
[mpeg @ 0x121f14570] buffer underflow st=0 bufi=5396 size=8203
[mpeg @ 0x121f14570] buffer underflow st=0 bufi=7437 size=8203
pts:86400 pts_time:0.96 dts:82800 dts_time:0.92 duration:0 duration_time:0 stream_index:0
[mpeg @ 0x121f14570] buffer underflow st=0 bufi=1266 size=2801
pts:90000 pts_time:1 dts:86400 dts_time:0.96 duration:0 duration_time:0 stream_index:0
pts:93600 pts_time:1.04 dts:90000 dts_time:1 duration:0 duration_time:0 stream_index:0
[mpeg @ 0x121f14570] buffer underflow st=0 bufi=51 size=16006
[mpeg @ 0x121f14570] buffer underflow st=0 bufi=2092 size=16006
[mpeg @ 0x121f14570] buffer underflow st=0 bufi=4133 size=16006
[mpeg @ 0x121f14570] buffer underflow st=0 bufi=6162 size=16006
[mpeg @ 0x121f14570] buffer underflow st=0 bufi=8203 size=16006
[mpeg @ 0x121f14570] buffer underflow st=0 bufi=10244 size=16006
[mpeg @ 0x121f14570] buffer underflow st=0 bufi=12285 size=16006
[mpeg @ 0x121f14570] buffer underflow st=0 bufi=14326 size=16006
pts:97200 pts_time:1.08 dts:93600 dts_time:1.04 duration:0 duration_time:0 stream_index:0
[mpeg @ 0x121f14570] buffer underflow st=0 bufi=352 size=462
pts:100800 pts_time:1.12 dts:97200 dts_time:1.08 duration:0 duration_time:0 stream_index:0
[mpeg @ 0x121f14570] buffer underflow st=0 bufi=1922 size=2328
pts:104400 pts_time:1.16 dts:100800 dts_time:1.12 duration:0 duration_time:0 stream_index:0
pts:108000 pts_time:1.2 dts:104400 dts_time:1.16 duration:0 duration_time:0 stream_index:0
pts:111600 pts_time:1.24 dts:108000 dts_time:1.2 duration:0 duration_time:0 stream_index:0
[mpeg @ 0x121f14570] buffer underflow st=0 bufi=304 size=1315
pts:115200 pts_time:1.28 dts:111600 dts_time:1.24 duration:0 duration_time:0 stream_index:0
[mpeg @ 0x121f14570] buffer underflow st=0 bufi=1021 size=7506
[mpeg @ 0x121f14570] buffer underflow st=0 bufi=3062 size=7506
[mpeg @ 0x121f14570] buffer underflow st=0 bufi=5103 size=7506
[mpeg @ 0x121f14570] buffer underflow st=0 bufi=7144 size=7506
pts:118800 pts_time:1.32 dts:115200 dts_time:1.28 duration:0 duration_time:0 stream_index:0
pts:122400 pts_time:1.36 dts:118800 dts_time:1.32 duration:0 duration_time:0 stream_index:0
pts:126000 pts_time:1.4 dts:122400 dts_time:1.36 duration:0 duration_time:0 stream_index:0
[mpeg @ 0x121f14570] buffer underflow st=0 bufi=774 size=9014
[mpeg @ 0x121f14570] buffer underflow st=0 bufi=2815 size=9014
[mpeg @ 0x121f14570] buffer underflow st=0 bufi=4856 size=9014
[mpeg @ 0x121f14570] buffer underflow st=0 bufi=6897 size=9014
[mpeg @ 0x121f14570] buffer underflow st=0 bufi=8938 size=9014
pts:129600 pts_time:1.44 dts:126000 dts_time:1.4 duration:0 duration_time:0 stream_index:0
pts:133200 pts_time:1.48 dts:129600 dts_time:1.44 duration:0 duration_time:0 stream_index:0
pts:136800 pts_time:1.52 dts:133200 dts_time:1.48 duration:0 duration_time:0 stream_index:0
[mpeg @ 0x121f14570] buffer underflow st=0 bufi=1361 size=16395
[mpeg @ 0x121f14570] buffer underflow st=0 bufi=3402 size=16395
[mpeg @ 0x121f14570] buffer underflow st=0 bufi=5443 size=16395
[mpeg @ 0x121f14570] buffer underflow st=0 bufi=7484 size=16395
[mpeg @ 0x121f14570] buffer underflow st=0 bufi=9525 size=16395
[mpeg @ 0x121f14570] buffer underflow st=0 bufi=11566 size=16395
[mpeg @ 0x121f14570] buffer underflow st=0 bufi=13607 size=16395
[mpeg @ 0x121f14570] buffer underflow st=0 bufi=15648 size=16395
pts:140400 pts_time:1.56 dts:136800 dts_time:1.52 duration:0 duration_time:0 stream_index:0
pts:144000 pts_time:1.6 dts:140400 dts_time:1.56 duration:0 duration_time:0 stream_index:0
[mpeg @ 0x121f14570] buffer underflow st=0 bufi=907 size=3011
[mpeg @ 0x121f14570] buffer underflow st=0 bufi=2948 size=3011
pts:147600 pts_time:1.64 dts:144000 dts_time:1.6 duration:0 duration_time:0 stream_index:0
pts:151200 pts_time:1.68 dts:147600 dts_time:1.64 duration:0 duration_time:0 stream_index:0
pts:154800 pts_time:1.72 dts:151200 dts_time:1.68 duration:0 duration_time:0 stream_index:0
pts:158400 pts_time:1.76 dts:154800 dts_time:1.72 duration:0 duration_time:0 stream_index:0
[mpeg @ 0x121f14570] buffer underflow st=0 bufi=107 size=1461
pts:162000 pts_time:1.8 dts:158400 dts_time:1.76 duration:0 duration_time:0 stream_index:0
[mpeg @ 0x121f14570] buffer underflow st=0 bufi=678 size=1464
pts:165600 pts_time:1.84 dts:162000 dts_time:1.8 duration:0 duration_time:0 stream_index:0
pts:169200 pts_time:1.88 dts:165600 dts_time:1.84 duration:0 duration_time:0 stream_index:0
[mpeg @ 0x121f14570] buffer underflow st=0 bufi=571 size=11632
[mpeg @ 0x121f14570] buffer underflow st=0 bufi=2612 size=11632
[mpeg @ 0x121f14570] buffer underflow st=0 bufi=4653 size=11632
[mpeg @ 0x121f14570] buffer underflow st=0 bufi=6694 size=11632
[mpeg @ 0x121f14570] buffer underflow st=0 bufi=8735 size=11632
[mpeg @ 0x121f14570] buffer underflow st=0 bufi=10776 size=11632
pts:172800 pts_time:1.92 dts:169200 dts_time:1.88 duration:0 duration_time:0 stream_index:0
pts:176400 pts_time:1.96 dts:172800 dts_time:1.92 duration:0 duration_time:0 stream_index:0
pts:180000 pts_time:2 dts:176400 dts_time:1.96 duration:0 duration_time:0 stream_index:0
[mpeg @ 0x121f14570] buffer underflow st=0 bufi=505 size=20568
[mpeg @ 0x121f14570] buffer underflow st=0 bufi=2546 size=20568
[mpeg @ 0x121f14570] buffer underflow st=0 bufi=4587 size=20568
[mpeg @ 0x121f14570] buffer underflow st=0 bufi=6628 size=20568
[mpeg @ 0x121f14570] buffer underflow st=0 bufi=8669 size=20568
[mpeg @ 0x121f14570] buffer underflow st=0 bufi=10710 size=20568
[mpeg @ 0x121f14570] buffer underflow st=0 bufi=12751 size=20568
[mpeg @ 0x121f14570] buffer underflow st=0 bufi=14792 size=20568
[mpeg @ 0x121f14570] buffer underflow st=0 bufi=16833 size=20568
[mpeg @ 0x121f14570] buffer underflow st=0 bufi=18874 size=20568
pts:183600 pts_time:2.04 dts:180000 dts_time:2 duration:0 duration_time:0 stream_index:0
[mpeg @ 0x121f14570] buffer underflow st=0 bufi=338 size=968
pts:187200 pts_time:2.08 dts:183600 dts_time:2.04 duration:0 duration_time:0 stream_index:0
pts:190800 pts_time:2.12 dts:187200 dts_time:2.08 duration:0 duration_time:0 stream_index:0
[mpeg @ 0x121f14570] buffer underflow st=0 bufi=681 size=943
pts:194400 pts_time:2.16 dts:190800 dts_time:2.12 duration:0 duration_time:0 stream_index:0
pts:198000 pts_time:2.2 dts:194400 dts_time:2.16 duration:0 duration_time:0 stream_index:0
pts:201600 pts_time:2.24 dts:198000 dts_time:2.2 duration:0 duration_time:0 stream_index:0
[mpeg @ 0x121f14570] buffer underflow st=0 bufi=392 size=614
pts:205200 pts_time:2.28 dts:201600 dts_time:2.24 duration:0 duration_time:0 stream_index:0
[mpeg @ 0x121f14570] buffer underflow st=0 bufi=1810 size=2649
pts:208800 pts_time:2.32 dts:205200 dts_time:2.28 duration:0 duration_time:0 stream_index:0
pts:212400 pts_time:2.36 dts:208800 dts_time:2.32 duration:0 duration_time:0 stream_index:0
[mpeg @ 0x121f14570] buffer underflow st=0 bufi=938 size=10324
[mpeg @ 0x121f14570] buffer underflow st=0 bufi=2979 size=10324
[mpeg @ 0x121f14570] buffer underflow st=0 bufi=5020 size=10324
[mpeg @ 0x121f14570] buffer underflow st=0 bufi=7049 size=10324
[mpeg @ 0x121f14570] buffer underflow st=0 bufi=9090 size=10324
pts:216000 pts_time:2.4 dts:212400 dts_time:2.36 duration:0 duration_time:0 stream_index:0
[mpeg @ 0x121f14570] buffer underflow st=0 bufi=798 size=4047
[mpeg @ 0x121f14570] buffer underflow st=0 bufi=2839 size=4047
pts:219600 pts_time:2.44 dts:216000 dts_time:2.4 duration:0 duration_time:0 stream_index:0
pts:223200 pts_time:2.48 dts:219600 dts_time:2.44 duration:0 duration_time:0 stream_index:0
[mpeg @ 0x121f14570] buffer underflow st=0 bufi=349 size=18003
[mpeg @ 0x121f14570] buffer underflow st=0 bufi=2390 size=18003
[mpeg @ 0x121f14570] buffer underflow st=0 bufi=4431 size=18003
[mpeg @ 0x121f14570] buffer underflow st=0 bufi=6472 size=18003
[mpeg @ 0x121f14570] buffer underflow st=0 bufi=8513 size=18003
[mpeg @ 0x121f14570] buffer underflow st=0 bufi=10554 size=18003
[mpeg @ 0x121f14570] buffer underflow st=0 bufi=12595 size=18003
[mpeg @ 0x121f14570] buffer underflow st=0 bufi=14636 size=18003
[mpeg @ 0x121f14570] buffer underflow st=0 bufi=16677 size=18003
pts:226800 pts_time:2.52 dts:223200 dts_time:2.48 duration:0 duration_time:0 stream_index:0
pts:230400 pts_time:2.56 dts:226800 dts_time:2.52 duration:0 duration_time:0 stream_index:0
[mpeg @ 0x121f14570] buffer underflow st=0 bufi=320 size=1189
pts:234000 pts_time:2.6 dts:230400 dts_time:2.56 duration:0 duration_time:0 stream_index:0
pts:237600 pts_time:2.64 dts:234000 dts_time:2.6 duration:0 duration_time:0 stream_index:0
[mpeg @ 0x121f14570] buffer underflow st=0 bufi=911 size=2319
pts:241200 pts_time:2.68 dts:237600 dts_time:2.64 duration:0 duration_time:0 stream_index:0
pts:244800 pts_time:2.72 dts:241200 dts_time:2.68 duration:0 duration_time:0 stream_index:0
[mpeg @ 0x121f14570] buffer underflow st=0 bufi=371 size=914
pts:248400 pts_time:2.76 dts:244800 dts_time:2.72 duration:0 duration_time:0 stream_index:0
pts:252000 pts_time:2.8 dts:248400 dts_time:2.76 duration:0 duration_time:0 stream_index:0
[mpeg @ 0x121f14570] buffer underflow st=0 bufi=978 size=2967
pts:255600 pts_time:2.84 dts:252000 dts_time:2.8 duration:0 duration_time:0 stream_index:0
[mpeg @ 0x121f14570] buffer underflow st=0 bufi=43 size=9870
[mpeg @ 0x121f14570] buffer underflow st=0 bufi=2084 size=9870
[mpeg @ 0x121f14570] buffer underflow st=0 bufi=4125 size=9870
[mpeg @ 0x121f14570] buffer underflow st=0 bufi=6166 size=9870
[mpeg @ 0x121f14570] buffer underflow st=0 bufi=8207 size=9870
pts:259200 pts_time:2.88 dts:255600 dts_time:2.84 duration:0 duration_time:0 stream_index:0
pts:262800 pts_time:2.92 dts:259200 dts_time:2.88 duration:0 duration_time:0 stream_index:0
pts:266400 pts_time:2.96 dts:262800 dts_time:2.92 duration:0 duration_time:0 stream_index:0
[mpeg @ 0x121f14570] buffer underflow st=0 bufi=141 size=150
[mpeg @ 0x121f14570] buffer underflow st=0 bufi=2023 size=25294
[mpeg @ 0x121f14570] buffer underflow st=0 bufi=4064 size=25294
[mpeg @ 0x121f14570] buffer underflow st=0 bufi=6105 size=25294
[mpeg @ 0x121f14570] buffer underflow st=0 bufi=8146 size=25294
[mpeg @ 0x121f14570] buffer underflow st=0 bufi=10187 size=25294
[mpeg @ 0x121f14570] buffer underflow st=0 bufi=12228 size=25294
[mpeg @ 0x121f14570] buffer underflow st=0 bufi=14269 size=25294
[mpeg @ 0x121f14570] buffer underflow st=0 bufi=16310 size=25294
[mpeg @ 0x121f14570] buffer underflow st=0 bufi=18351 size=25294
[mpeg @ 0x121f14570] buffer underflow st=0 bufi=20392 size=25294
[mpeg @ 0x121f14570] buffer underflow st=0 bufi=22433 size=25294
[mpeg @ 0x121f14570] buffer underflow st=0 bufi=24474 size=25294
pts:270000 pts_time:3 dts:266400 dts_time:2.96 duration:0 duration_time:0 stream_index:0
pts:273600 pts_time:3.04 dts:270000 dts_time:3 duration:0 duration_time:0 stream_index:0
pts:277200 pts_time:3.08 dts:273600 dts_time:3.04 duration:0 duration_time:0 stream_index:0
[mpeg @ 0x121f14570] buffer underflow st=0 bufi=541 size=1440
pts:280800 pts_time:3.12 dts:277200 dts_time:3.08 duration:0 duration_time:0 stream_index:0
pts:284400 pts_time:3.16 dts:280800 dts_time:3.12 duration:0 duration_time:0 stream_index:0
pts:288000 pts_time:3.2 dts:284400 dts_time:3.16 duration:0 duration_time:0 stream_index:0
[mpeg @ 0x121f14570] buffer underflow st=0 bufi=631 size=2463
pts:291600 pts_time:3.24 dts:288000 dts_time:3.2 duration:0 duration_time:0 stream_index:0
[mpeg @ 0x121f14570] buffer underflow st=0 bufi=200 size=226
pts:295200 pts_time:3.28 dts:291600 dts_time:3.24 duration:0 duration_time:0 stream_index:0
pts:298800 pts_time:3.32 dts:295200 dts_time:3.28 duration:0 duration_time:0 stream_index:0
[mpeg @ 0x121f14570] buffer underflow st=0 bufi=1709 size=11319
[mpeg @ 0x121f14570] buffer underflow st=0 bufi=3750 size=11319
[mpeg @ 0x121f14570] buffer underflow st=0 bufi=5791 size=11319
[mpeg @ 0x121f14570] buffer underflow st=0 bufi=7832 size=11319
[mpeg @ 0x121f14570] buffer underflow st=0 bufi=9873 size=11319
pts:302400 pts_time:3.36 dts:298800 dts_time:3.32 duration:0 duration_time:0 stream_index:0
pts:306000 pts_time:3.4 dts:302400 dts_time:3.36 duration:0 duration_time:0 stream_index:0
pts:309600 pts_time:3.44 dts:306000 dts_time:3.4 duration:0 duration_time:0 stream_index:0
[mpeg @ 0x121f14570] buffer underflow st=0 bufi=154 size=26540
[mpeg @ 0x121f14570] buffer underflow st=0 bufi=2195 size=26540
[mpeg @ 0x121f14570] buffer underflow st=0 bufi=4236 size=26540
[mpeg @ 0x121f14570] buffer underflow st=0 bufi=6277 size=26540
[mpeg @ 0x121f14570] buffer underflow st=0 bufi=8318 size=26540
[mpeg @ 0x121f14570] buffer underflow st=0 bufi=10359 size=26540
[mpeg @ 0x121f14570] buffer underflow st=0 bufi=12400 size=26540
[mpeg @ 0x121f14570] buffer underflow st=0 bufi=14441 size=26540
[mpeg @ 0x121f14570] buffer underflow st=0 bufi=16482 size=26540
[mpeg @ 0x121f14570] buffer underflow st=0 bufi=18511 size=26540
[mpeg @ 0x121f14570] buffer underflow st=0 bufi=20552 size=26540
[mpeg @ 0x121f14570] buffer underflow st=0 bufi=22593 size=26540
[mpeg @ 0x121f14570] buffer underflow st=0 bufi=24634 size=26540
pts:313200 pts_time:3.48 dts:309600 dts_time:3.44 duration:0 duration_time:0 stream_index:0
[mpeg @ 0x121f14570] buffer underflow st=0 bufi=126 size=353
pts:316800 pts_time:3.52 dts:313200 dts_time:3.48 duration:0 duration_time:0 stream_index:0
[mpeg @ 0x121f14570] buffer underflow st=0 bufi=1805 size=5551
[mpeg @ 0x121f14570] buffer underflow st=0 bufi=3846 size=5551
pts:320400 pts_time:3.56 dts:316800 dts_time:3.52 duration:0 duration_time:0 stream_index:0
pts:324000 pts_time:3.6 dts:320400 dts_time:3.56 duration:0 duration_time:0 stream_index:0
[mpeg @ 0x121f14570] buffer underflow st=0 bufi=42 size=201
pts:327600 pts_time:3.64 dts:324000 dts_time:3.6 duration:0 duration_time:0 stream_index:0
pts:331200 pts_time:3.68 dts:327600 dts_time:3.64 duration:0 duration_time:0 stream_index:0
[mpeg @ 0x121f14570] buffer underflow st=0 bufi=1611 size=2083
pts:334800 pts_time:3.72 dts:331200 dts_time:3.68 duration:0 duration_time:0 stream_index:0
pts:338400 pts_time:3.76 dts:334800 dts_time:3.72 duration:0 duration_time:0 stream_index:0
pts:342000 pts_time:3.8 dts:338400 dts_time:3.76 duration:0 duration_time:0 stream_index:0
[mpeg @ 0x121f14570] buffer underflow st=0 bufi=1184 size=3619
[mpeg @ 0x121f14570] buffer underflow st=0 bufi=3225 size=3619
pts:345600 pts_time:3.84 dts:342000 dts_time:3.8 duration:0 duration_time:0 stream_index:0
pts:349200 pts_time:3.88 dts:345600 dts_time:3.84 duration:0 duration_time:0 stream_index:0
pts:352800 pts_time:3.92 dts:349200 dts_time:3.88 duration:0 duration_time:0 stream_index:0
[mpeg @ 0x121f14570] buffer underflow st=0 bufi=1382 size=27516
[mpeg @ 0x121f14570] buffer underflow st=0 bufi=3423 size=27516
[mpeg @ 0x121f14570] buffer underflow st=0 bufi=5464 size=27516
[mpeg @ 0x121f14570] buffer underflow st=0 bufi=7505 size=27516
[mpeg @ 0x121f14570] buffer underflow st=0 bufi=9546 size=27516
[mpeg @ 0x121f14570] buffer underflow st=0 bufi=11587 size=27516
[mpeg @ 0x121f14570] buffer underflow st=0 bufi=13628 size=27516
[mpeg @ 0x121f14570] buffer underflow st=0 bufi=15669 size=27516
[mpeg @ 0x121f14570] buffer underflow st=0 bufi=17710 size=27516
[mpeg @ 0x121f14570] buffer underflow st=0 bufi=19751 size=27516
[mpeg @ 0x121f14570] buffer underflow st=0 bufi=21792 size=27516
[mpeg @ 0x121f14570] buffer underflow st=0 bufi=23833 size=27516
[mpeg @ 0x121f14570] buffer underflow st=0 bufi=25874 size=27516
pts:356400 pts_time:3.96 dts:352800 dts_time:3.92 duration:0 duration_time:0 stream_index:0
[mpeg @ 0x121f14570] buffer underflow st=0 bufi=390 size=548
pts:360000 pts_time:4 dts:356400 dts_time:3.96 duration:0 duration_time:0 stream_index:0
[mpeg @ 0x121f14570] buffer underflow st=0 bufi=1874 size=20774
[mpeg @ 0x121f14570] buffer underflow st=0 bufi=3915 size=20774
[mpeg @ 0x121f14570] buffer underflow st=0 bufi=5956 size=20774
[mpeg @ 0x121f14570] buffer underflow st=0 bufi=7997 size=20774
[mpeg @ 0x121f14570] buffer underflow st=0 bufi=10038 size=20774
[mpeg @ 0x121f14570] buffer underflow st=0 bufi=12079 size=20774
[mpeg @ 0x121f14570] buffer underflow st=0 bufi=14120 size=20774
[mpeg @ 0x121f14570] buffer underflow st=0 bufi=16161 size=20774
[mpeg @ 0x121f14570] buffer underflow st=0 bufi=18202 size=20774
[mpeg @ 0x121f14570] buffer underflow st=0 bufi=20243 size=20774
pts:363600 pts_time:4.04 dts:360000 dts_time:4 duration:0 duration_time:0 stream_index:0
[mpeg @ 0x121f14570] buffer underflow st=0 bufi=1501 size=3990
[mpeg @ 0x121f14570] buffer underflow st=0 bufi=3542 size=3990
pts:367200 pts_time:4.08 dts:363600 dts_time:4.04 duration:0 duration_time:0 stream_index:0
[mpeg @ 0x121f14570] buffer underflow st=0 bufi=1584 size=2598
pts:370800 pts_time:4.12 dts:367200 dts_time:4.08 duration:0 duration_time:0 stream_index:0
[mpeg @ 0x121f14570] buffer underflow st=0 bufi=1018 size=1860
pts:374400 pts_time:4.16 dts:370800 dts_time:4.12 duration:0 duration_time:0 stream_index:0
[mpeg @ 0x121f14570] buffer underflow st=0 bufi=1190 size=3516
[mpeg @ 0x121f14570] buffer underflow st=0 bufi=3231 size=3516
pts:378000 pts_time:4.2 dts:374400 dts_time:4.16 duration:0 duration_time:0 stream_index:0
[mpeg @ 0x121f14570] buffer underflow st=0 bufi=1747 size=3375
pts:381600 pts_time:4.24 dts:378000 dts_time:4.2 duration:0 duration_time:0 stream_index:0
[mpeg @ 0x121f14570] buffer underflow st=0 bufi=404 size=1932
pts:385200 pts_time:4.28 dts:381600 dts_time:4.24 duration:0 duration_time:0 stream_index:0
[mpeg @ 0x121f14570] buffer underflow st=0 bufi=504 size=2659
[mpeg @ 0x121f14570] buffer underflow st=0 bufi=2545 size=2659
pts:388800 pts_time:4.32 dts:385200 dts_time:4.28 duration:0 duration_time:0 stream_index:0
[mpeg @ 0x121f14570] buffer underflow st=0 bufi=1918 size=2149
pts:392400 pts_time:4.36 dts:388800 dts_time:4.32 duration:0 duration_time:0 stream_index:0
pts:396000 pts_time:4.4 dts:392400 dts_time:4.36 duration:0 duration_time:0 stream_index:0
[mpeg @ 0x121f14570] buffer underflow st=0 bufi=111 size=10741
[mpeg @ 0x121f14570] buffer underflow st=0 bufi=2152 size=10741
[mpeg @ 0x121f14570] buffer underflow st=0 bufi=4193 size=10741
[mpeg @ 0x121f14570] buffer underflow st=0 bufi=6234 size=10741
[mpeg @ 0x121f14570] buffer underflow st=0 bufi=8275 size=10741
[mpeg @ 0x121f14570] buffer underflow st=0 bufi=10316 size=10741
pts:399600 pts_time:4.44 dts:396000 dts_time:4.4 duration:0 duration_time:0 stream_index:0
[mpeg @ 0x121f14570] buffer underflow st=0 bufi=1580 size=1958
pts:403200 pts_time:4.48 dts:399600 dts_time:4.44 duration:0 duration_time:0 stream_index:0
[mpeg @ 0x121f14570] buffer underflow st=0 bufi=1654 size=1839
pts:406800 pts_time:4.52 dts:403200 dts_time:4.48 duration:0 duration_time:0 stream_index:0
[mpeg @ 0x121f14570] buffer underflow st=0 bufi=1847 size=2713
pts:410400 pts_time:4.56 dts:406800 dts_time:4.52 duration:0 duration_time:0 stream_index:0
[mpeg @ 0x121f14570] buffer underflow st=0 bufi=1166 size=1689
pts:414000 pts_time:4.6 dts:410400 dts_time:4.56 duration:0 duration_time:0 stream_index:0
[mpeg @ 0x121f14570] buffer underflow st=0 bufi=1509 size=2361
pts:417600 pts_time:4.64 dts:414000 dts_time:4.6 duration:0 duration_time:0 stream_index:0
[mpeg @ 0x121f14570] buffer underflow st=0 bufi=1180 size=3107
pts:421200 pts_time:4.68 dts:417600 dts_time:4.64 duration:0 duration_time:0 stream_index:0
[mpeg @ 0x121f14570] buffer underflow st=0 bufi=105 size=1835
pts:424800 pts_time:4.72 dts:421200 dts_time:4.68 duration:0 duration_time:0 stream_index:0
[mpeg @ 0x121f14570] buffer underflow st=0 bufi=302 size=2110
pts:428400 pts_time:4.76 dts:424800 dts_time:4.72 duration:0 duration_time:0 stream_index:0
[mpeg @ 0x121f14570] buffer underflow st=0 bufi=224 size=2427
[mpeg @ 0x121f14570] buffer underflow st=0 bufi=2265 size=2427
pts:432000 pts_time:4.8 dts:428400 dts_time:4.76 duration:0 duration_time:0 stream_index:0
pts:435600 pts_time:4.84 dts:432000 dts_time:4.8 duration:0 duration_time:0 stream_index:0
[mpeg @ 0x121f14570] buffer underflow st=0 bufi=0 size=2106
[mpeg @ 0x121f14570] buffer underflow st=0 bufi=2032 size=2106
pts:439200 pts_time:4.88 dts:435600 dts_time:4.84 duration:0 duration_time:0 stream_index:0
[mpeg @ 0x121f14570] buffer underflow st=0 bufi=1958 size=9710
[mpeg @ 0x121f14570] buffer underflow st=0 bufi=3999 size=9710
[mpeg @ 0x121f14570] buffer underflow st=0 bufi=6040 size=9710
[mpeg @ 0x121f14570] buffer underflow st=0 bufi=8081 size=9710
pts:442800 pts_time:4.92 dts:439200 dts_time:4.88 duration:0 duration_time:0 stream_index:0
[mpeg @ 0x121f14570] buffer underflow st=0 bufi=403 size=1647
pts:446400 pts_time:4.96 dts:442800 dts_time:4.92 duration:0 duration_time:0 stream_index:0
[mpeg @ 0x121f14570] buffer underflow st=0 bufi=788 size=2422
pts:450000 pts_time:5 dts:446400 dts_time:4.96 duration:0 duration_time:0 stream_index:0
[mpeg @ 0x121f14570] buffer underflow st=0 bufi=398 size=2712
[mpeg @ 0x121f14570] buffer underflow st=0 bufi=2439 size=2712
pts:453600 pts_time:5.04 dts:450000 dts_time:5 duration:0 duration_time:0 stream_index:0
[mpeg @ 0x121f14570] buffer underflow st=0 bufi=1759 size=2780
pts:457200 pts_time:5.08 dts:453600 dts_time:5.04 duration:0 duration_time:0 stream_index:0
[mpeg @ 0x121f14570] buffer underflow st=0 bufi=1011 size=1551
pts:460800 pts_time:5.12 dts:457200 dts_time:5.08 duration:0 duration_time:0 stream_index:0
[mpeg @ 0x121f14570] buffer underflow st=0 bufi=1492 size=2403
pts:464400 pts_time:5.16 dts:460800 dts_time:5.12 duration:0 duration_time:0 stream_index:0
[mpeg @ 0x121f14570] buffer underflow st=0 bufi=1121 size=3225
[mpeg @ 0x121f14570] buffer underflow st=0 bufi=3162 size=3225
pts:468000 pts_time:5.2 dts:464400 dts_time:5.16 duration:0 duration_time:0 stream_index:0
[mpeg @ 0x121f14570] buffer underflow st=0 bufi=1969 size=2032
pts:471600 pts_time:5.24 dts:468000 dts_time:5.2 duration:0 duration_time:0 stream_index:0
[mpeg @ 0x121f14570] buffer underflow st=0 bufi=1969 size=3197
pts:475200 pts_time:5.28 dts:471600 dts_time:5.24 duration:0 duration_time:0 stream_index:0
[mpeg @ 0x121f14570] buffer underflow st=0 bufi=804 size=2709
pts:478800 pts_time:5.32 dts:475200 dts_time:5.28 duration:0 duration_time:0 stream_index:0
[mpeg @ 0x121f14570] buffer underflow st=0 bufi=127 size=2092
pts:482400 pts_time:5.36 dts:478800 dts_time:5.32 duration:0 duration_time:0 stream_index:0
[mpeg @ 0x121f14570] buffer underflow st=0 bufi=67 size=10705
[mpeg @ 0x121f14570] buffer underflow st=0 bufi=2108 size=10705
[mpeg @ 0x121f14570] buffer underflow st=0 bufi=4149 size=10705
[mpeg @ 0x121f14570] buffer underflow st=0 bufi=6190 size=10705
[mpeg @ 0x121f14570] buffer underflow st=0 bufi=8231 size=10705
[mpeg @ 0x121f14570] buffer underflow st=0 bufi=10272 size=10705
pts:486000 pts_time:5.4 dts:482400 dts_time:5.36 duration:0 duration_time:0 stream_index:0
[mpeg @ 0x121f14570] buffer underflow st=0 bufi=1599 size=2729
pts:489600 pts_time:5.44 dts:486000 dts_time:5.4 duration:0 duration_time:0 stream_index:0
[mpeg @ 0x121f14570] buffer underflow st=0 bufi=902 size=2452
pts:493200 pts_time:5.48 dts:489600 dts_time:5.44 duration:0 duration_time:0 stream_index:0
[mpeg @ 0x121f14570] buffer underflow st=0 bufi=482 size=3445
[mpeg @ 0x121f14570] buffer underflow st=0 bufi=2523 size=3445
pts:496800 pts_time:5.52 dts:493200 dts_time:5.48 duration:0 duration_time:0 stream_index:0
[mpeg @ 0x121f14570] buffer underflow st=0 bufi=1110 size=2702
pts:500400 pts_time:5.56 dts:496800 dts_time:5.52 duration:0 duration_time:0 stream_index:0
[mpeg @ 0x121f14570] buffer underflow st=0 bufi=440 size=2246
pts:504000 pts_time:5.6 dts:500400 dts_time:5.56 duration:0 duration_time:0 stream_index:0
[mpeg @ 0x121f14570] buffer underflow st=0 bufi=226 size=2551
[mpeg @ 0x121f14570] buffer underflow st=0 bufi=2267 size=2551
pts:507600 pts_time:5.64 dts:504000 dts_time:5.6 duration:0 duration_time:0 stream_index:0
pts:511200 pts_time:5.68 dts:507600 dts_time:5.64 duration:0 duration_time:0 stream_index:0
[mpeg @ 0x121f14570] buffer underflow st=0 bufi=222 size=2588
[mpeg @ 0x121f14570] buffer underflow st=0 bufi=2263 size=2588
pts:514800 pts_time:5.72 dts:511200 dts_time:5.68 duration:0 duration_time:0 stream_index:0
[mpeg @ 0x121f14570] buffer underflow st=0 bufi=1707 size=2401
pts:518400 pts_time:5.76 dts:514800 dts_time:5.72 duration:0 duration_time:0 stream_index:0
[mpeg @ 0x121f14570] buffer underflow st=0 bufi=1338 size=1838
pts:522000 pts_time:5.8 dts:518400 dts_time:5.76 duration:0 duration_time:0 stream_index:0
[mpeg @ 0x121f14570] buffer underflow st=0 bufi=1532 size=2156
pts:525600 pts_time:5.84 dts:522000 dts_time:5.8 duration:0 duration_time:0 stream_index:0
[mpeg @ 0x121f14570] buffer underflow st=0 bufi=1408 size=9639
[mpeg @ 0x121f14570] buffer underflow st=0 bufi=3449 size=9639
[mpeg @ 0x121f14570] buffer underflow st=0 bufi=5490 size=9639
[mpeg @ 0x121f14570] buffer underflow st=0 bufi=7531 size=9639
[mpeg @ 0x121f14570] buffer underflow st=0 bufi=9560 size=9639
pts:529200 pts_time:5.88 dts:525600 dts_time:5.84 duration:0 duration_time:0 stream_index:0
pts:532800 pts_time:5.92 dts:529200 dts_time:5.88 duration:0 duration_time:0 stream_index:0
[mpeg @ 0x121f14570] buffer underflow st=0 bufi=216 size=2472
[mpeg @ 0x121f14570] buffer underflow st=0 bufi=2257 size=2472
pts:536400 pts_time:5.96 dts:532800 dts_time:5.92 duration:0 duration_time:0 stream_index:0
[mpeg @ 0x121f14570] buffer underflow st=0 bufi=1817 size=2781
pts:540000 pts_time:6 dts:536400 dts_time:5.96 duration:0 duration_time:0 stream_index:0
[mpeg @ 0x121f14570] buffer underflow st=0 bufi=1068 size=2993
pts:543600 pts_time:6.04 dts:540000 dts_time:6 duration:0 duration_time:0 stream_index:0
[mpeg @ 0x121f14570] buffer underflow st=0 bufi=107 size=1615
pts:547200 pts_time:6.08 dts:543600 dts_time:6.04 duration:0 duration_time:0 stream_index:0
[mpeg @ 0x121f14570] buffer underflow st=0 bufi=524 size=1981
pts:550800 pts_time:6.12 dts:547200 dts_time:6.08 duration:0 duration_time:0 stream_index:0
[mpeg @ 0x121f14570] buffer underflow st=0 bufi=575 size=2623
[mpeg @ 0x121f14570] buffer underflow st=0 bufi=2616 size=2623
pts:554400 pts_time:6.16 dts:550800 dts_time:6.12 duration:0 duration_time:0 stream_index:0
pts:558000 pts_time:6.2 dts:554400 dts_time:6.16 duration:0 duration_time:0 stream_index:0
[mpeg @ 0x121f14570] buffer underflow st=0 bufi=150 size=2728
[mpeg @ 0x121f14570] buffer underflow st=0 bufi=2191 size=2728
pts:561600 pts_time:6.24 dts:558000 dts_time:6.2 duration:0 duration_time:0 stream_index:0
[mpeg @ 0x121f14570] buffer underflow st=0 bufi=1495 size=2050
pts:565200 pts_time:6.28 dts:561600 dts_time:6.24 duration:0 duration_time:0 stream_index:0
[mpeg @ 0x121f14570] buffer underflow st=0 bufi=1477 size=1839
pts:568800 pts_time:6.32 dts:565200 dts_time:6.28 duration:0 duration_time:0 stream_index:0
[mpeg @ 0x121f14570] buffer underflow st=0 bufi=1670 size=10333
[mpeg @ 0x121f14570] buffer underflow st=0 bufi=3711 size=10333
[mpeg @ 0x121f14570] buffer underflow st=0 bufi=5752 size=10333
[mpeg @ 0x121f14570] buffer underflow st=0 bufi=7793 size=10333
[mpeg @ 0x121f14570] buffer underflow st=0 bufi=9834 size=10333
pts:572400 pts_time:6.36 dts:568800 dts_time:6.32 duration:0 duration_time:0 stream_index:0
[mpeg @ 0x121f14570] buffer underflow st=0 bufi=1533 size=2449
pts:576000 pts_time:6.4 dts:572400 dts_time:6.36 duration:0 duration_time:0 stream_index:0
[mpeg @ 0x121f14570] buffer underflow st=0 bufi=1116 size=2178
pts:579600 pts_time:6.44 dts:576000 dts_time:6.4 duration:0 duration_time:0 stream_index:0
[mpeg @ 0x121f14570] buffer underflow st=0 bufi=970 size=3031
[mpeg @ 0x121f14570] buffer underflow st=0 bufi=3011 size=3031
pts:583200 pts_time:6.48 dts:579600 dts_time:6.44 duration:0 duration_time:0 stream_index:0
[mpeg @ 0x121f14570] buffer underflow st=0 bufi=2012 size=2724
pts:586800 pts_time:6.52 dts:583200 dts_time:6.48 duration:0 duration_time:0 stream_index:0
[mpeg @ 0x121f14570] buffer underflow st=0 bufi=1320 size=1587
pts:590400 pts_time:6.56 dts:586800 dts_time:6.52 duration:0 duration_time:0 stream_index:0
[mpeg @ 0x121f14570] buffer underflow st=0 bufi=1765 size=1986
pts:594000 pts_time:6.6 dts:590400 dts_time:6.56 duration:0 duration_time:0 stream_index:0
[mpeg @ 0x121f14570] buffer underflow st=0 bufi=1811 size=1942
pts:597600 pts_time:6.64 dts:594000 dts_time:6.6 duration:0 duration_time:0 stream_index:0
[mpeg @ 0x121f14570] buffer underflow st=0 bufi=1901 size=2645
pts:601200 pts_time:6.68 dts:597600 dts_time:6.64 duration:0 duration_time:0 stream_index:0
[mpeg @ 0x121f14570] buffer underflow st=0 bufi=1288 size=2872
pts:604800 pts_time:6.72 dts:601200 dts_time:6.68 duration:0 duration_time:0 stream_index:0
[mpeg @ 0x121f14570] buffer underflow st=0 bufi=448 size=1746
pts:608400 pts_time:6.76 dts:604800 dts_time:6.72 duration:0 duration_time:0 stream_index:0
[mpeg @ 0x121f14570] buffer underflow st=0 bufi=734 size=2061
pts:612000 pts_time:6.8 dts:608400 dts_time:6.76 duration:0 duration_time:0 stream_index:0
[mpeg @ 0x121f14570] buffer underflow st=0 bufi=705 size=9645
[mpeg @ 0x121f14570] buffer underflow st=0 bufi=2746 size=9645
[mpeg @ 0x121f14570] buffer underflow st=0 bufi=4787 size=9645
[mpeg @ 0x121f14570] buffer underflow st=0 bufi=6828 size=9645
[mpeg @ 0x121f14570] buffer underflow st=0 bufi=8869 size=9645
pts:615600 pts_time:6.84 dts:612000 dts_time:6.8 duration:0 duration_time:0 stream_index:0
[mpeg @ 0x121f14570] buffer underflow st=0 bufi=1256 size=1648
pts:619200 pts_time:6.88 dts:615600 dts_time:6.84 duration:0 duration_time:0 stream_index:0
[mpeg @ 0x121f14570] buffer underflow st=0 bufi=1640 size=2316
pts:622800 pts_time:6.92 dts:619200 dts_time:6.88 duration:0 duration_time:0 stream_index:0
[mpeg @ 0x121f14570] buffer underflow st=0 bufi=1356 size=2650
pts:626400 pts_time:6.96 dts:622800 dts_time:6.92 duration:0 duration_time:0 stream_index:0
[mpeg @ 0x121f14570] buffer underflow st=0 bufi=738 size=2742
pts:630000 pts_time:7 dts:626400 dts_time:6.96 duration:0 duration_time:0 stream_index:0
[mpeg @ 0x121f14570] buffer underflow st=0 bufi=28 size=1528
pts:633600 pts_time:7.04 dts:630000 dts_time:7 duration:0 duration_time:0 stream_index:0
[mpeg @ 0x121f14570] buffer underflow st=0 bufi=532 size=2131
pts:637200 pts_time:7.08 dts:633600 dts_time:7.04 duration:0 duration_time:0 stream_index:0
[mpeg @ 0x121f14570] buffer underflow st=0 bufi=433 size=2719
[mpeg @ 0x121f14570] buffer underflow st=0 bufi=2474 size=2719
pts:640800 pts_time:7.12 dts:637200 dts_time:7.08 duration:0 duration_time:0 stream_index:0
pts:644400 pts_time:7.16 dts:640800 dts_time:7.12 duration:0 duration_time:0 stream_index:0
[mpeg @ 0x121f14570] buffer underflow st=0 bufi=34 size=2933
[mpeg @ 0x121f14570] buffer underflow st=0 bufi=2075 size=2933
pts:648000 pts_time:7.2 dts:644400 dts_time:7.16 duration:0 duration_time:0 stream_index:0
[mpeg @ 0x121f14570] buffer underflow st=0 bufi=1174 size=2545
pts:651600 pts_time:7.24 dts:648000 dts_time:7.2 duration:0 duration_time:0 stream_index:0
[mpeg @ 0x121f14570] buffer underflow st=0 bufi=661 size=2212
pts:655200 pts_time:7.28 dts:651600 dts_time:7.24 duration:0 duration_time:0 stream_index:0
[mpeg @ 0x121f14570] buffer underflow st=0 bufi=481 size=10817
[mpeg @ 0x121f14570] buffer underflow st=0 bufi=2522 size=10817
[mpeg @ 0x121f14570] buffer underflow st=0 bufi=4563 size=10817
[mpeg @ 0x121f14570] buffer underflow st=0 bufi=6604 size=10817
[mpeg @ 0x121f14570] buffer underflow st=0 bufi=8645 size=10817
[mpeg @ 0x121f14570] buffer underflow st=0 bufi=10674 size=10817
pts:658800 pts_time:7.32 dts:655200 dts_time:7.28 duration:0 duration_time:0 stream_index:0
[mpeg @ 0x121f14570] buffer underflow st=0 bufi=1889 size=2748
pts:662400 pts_time:7.36 dts:658800 dts_time:7.32 duration:0 duration_time:0 stream_index:0
[mpeg @ 0x121f14570] buffer underflow st=0 bufi=1173 size=2435
pts:666000 pts_time:7.4 dts:662400 dts_time:7.36 duration:0 duration_time:0 stream_index:0
[mpeg @ 0x121f14570] buffer underflow st=0 bufi=770 size=3392
[mpeg @ 0x121f14570] buffer underflow st=0 bufi=2811 size=3392
pts:669600 pts_time:7.44 dts:666000 dts_time:7.4 duration:0 duration_time:0 stream_index:0
[mpeg @ 0x121f14570] buffer underflow st=0 bufi=1451 size=2985
pts:673200 pts_time:7.48 dts:669600 dts_time:7.44 duration:0 duration_time:0 stream_index:0
[mpeg @ 0x121f14570] buffer underflow st=0 bufi=498 size=2138
pts:676800 pts_time:7.52 dts:673200 dts_time:7.48 duration:0 duration_time:0 stream_index:0
[mpeg @ 0x121f14570] buffer underflow st=0 bufi=392 size=2710
[mpeg @ 0x121f14570] buffer underflow st=0 bufi=2433 size=2710
pts:680400 pts_time:7.56 dts:676800 dts_time:7.52 duration:0 duration_time:0 stream_index:0
[mpeg @ 0x121f14570] buffer underflow st=0 bufi=1755 size=2737
pts:684000 pts_time:7.6 dts:680400 dts_time:7.56 duration:0 duration_time:0 stream_index:0
[mpeg @ 0x121f14570] buffer underflow st=0 bufi=1050 size=2605
pts:687600 pts_time:7.64 dts:684000 dts_time:7.6 duration:0 duration_time:0 stream_index:0
[mpeg @ 0x121f14570] buffer underflow st=0 bufi=477 size=2752
[mpeg @ 0x121f14570] buffer underflow st=0 bufi=2518 size=2752
pts:691200 pts_time:7.68 dts:687600 dts_time:7.64 duration:0 duration_time:0 stream_index:0
pts:694800 pts_time:7.72 dts:691200 dts_time:7.68 duration:0 duration_time:0 stream_index:0
[mpeg @ 0x121f14570] buffer underflow st=0 bufi=190 size=1642
pts:698400 pts_time:7.76 dts:694800 dts_time:7.72 duration:0 duration_time:0 stream_index:0
[mpeg @ 0x121f14570] buffer underflow st=0 bufi=580 size=9309
[mpeg @ 0x121f14570] buffer underflow st=0 bufi=2621 size=9309
[mpeg @ 0x121f14570] buffer underflow st=0 bufi=4662 size=9309
[mpeg @ 0x121f14570] buffer underflow st=0 bufi=6703 size=9309
[mpeg @ 0x121f14570] buffer underflow st=0 bufi=8744 size=9309
pts:702000 pts_time:7.8 dts:698400 dts_time:7.76 duration:0 duration_time:0 stream_index:0
pts:705600 pts_time:7.84 dts:702000 dts_time:7.8 duration:0 duration_time:0 stream_index:0
[mpeg @ 0x121f14570] buffer underflow st=0 bufi=1467 size=1481
[mpeg @ 0x121f14570] buffer underflow st=0 bufi=2018 size=2051
pts:709200 pts_time:7.88 dts:705600 dts_time:7.84 duration:0 duration_time:0 stream_index:0
[mpeg @ 0x121f14570] buffer underflow st=0 bufi=1999 size=2639
pts:712800 pts_time:7.92 dts:709200 dts_time:7.88 duration:0 duration_time:0 stream_index:0
[mpeg @ 0x121f14570] buffer underflow st=0 bufi=1392 size=2367
pts:716400 pts_time:7.96 dts:712800 dts_time:7.92 duration:0 duration_time:0 stream_index:0
[mpeg @ 0x121f14570] buffer underflow st=0 bufi=1057 size=1468
pts:720000 pts_time:8 dts:716400 dts_time:7.96 duration:0 duration_time:0 stream_index:0
[mpeg @ 0x121f14570] buffer underflow st=0 bufi=1621 size=2275
pts:723600 pts_time:8.04 dts:720000 dts_time:8 duration:0 duration_time:0 stream_index:0
[mpeg @ 0x121f14570] buffer underflow st=0 bufi=1378 size=2660
pts:727200 pts_time:8.08 dts:723600 dts_time:8.04 duration:0 duration_time:0 stream_index:0
[mpeg @ 0x121f14570] buffer underflow st=0 bufi=750 size=2174
pts:730800 pts_time:8.12 dts:727200 dts_time:8.08 duration:0 duration_time:0 stream_index:0
[mpeg @ 0x121f14570] buffer underflow st=0 bufi=608 size=2666
[mpeg @ 0x121f14570] buffer underflow st=0 bufi=2649 size=2666
pts:734400 pts_time:8.16 dts:730800 dts_time:8.12 duration:0 duration_time:0 stream_index:0
[mpeg @ 0x121f14570] buffer underflow st=0 bufi=2015 size=2123
pts:738000 pts_time:8.2 dts:734400 dts_time:8.16 duration:0 duration_time:0 stream_index:0
[mpeg @ 0x121f14570] buffer underflow st=0 bufi=1924 size=1947
pts:741600 pts_time:8.24 dts:738000 dts_time:8.2 duration:0 duration_time:0 stream_index:0
[mpeg @ 0x121f14570] buffer underflow st=0 bufi=2009 size=10415
[mpeg @ 0x121f14570] buffer underflow st=0 bufi=4050 size=10415
[mpeg @ 0x121f14570] buffer underflow st=0 bufi=6091 size=10415
[mpeg @ 0x121f14570] buffer underflow st=0 bufi=8132 size=10415
[mpeg @ 0x121f14570] buffer underflow st=0 bufi=10173 size=10415
pts:745200 pts_time:8.28 dts:741600 dts_time:8.24 duration:0 duration_time:0 stream_index:0
[mpeg @ 0x121f14570] buffer underflow st=0 bufi=1790 size=2429
pts:748800 pts_time:8.32 dts:745200 dts_time:8.28 duration:0 duration_time:0 stream_index:0
[mpeg @ 0x121f14570] buffer underflow st=0 bufi=1393 size=2119
pts:752400 pts_time:8.36 dts:748800 dts_time:8.32 duration:0 duration_time:0 stream_index:0
[mpeg @ 0x121f14570] buffer underflow st=0 bufi=1306 size=2398
pts:756000 pts_time:8.4 dts:752400 dts_time:8.36 duration:0 duration_time:0 stream_index:0
[mpeg @ 0x121f14570] buffer underflow st=0 bufi=940 size=2373
pts:759600 pts_time:8.44 dts:756000 dts_time:8.4 duration:0 duration_time:0 stream_index:0
[mpeg @ 0x121f14570] buffer underflow st=0 bufi=599 size=1675
pts:763200 pts_time:8.48 dts:759600 dts_time:8.44 duration:0 duration_time:0 stream_index:0
[mpeg @ 0x121f14570] buffer underflow st=0 bufi=956 size=2000
pts:766800 pts_time:8.52 dts:763200 dts_time:8.48 duration:0 duration_time:0 stream_index:0
[mpeg @ 0x121f14570] buffer underflow st=0 bufi=988 size=1811
pts:770400 pts_time:8.56 dts:766800 dts_time:8.52 duration:0 duration_time:0 stream_index:0
[mpeg @ 0x121f14570] buffer underflow st=0 bufi=1209 size=2107
pts:774000 pts_time:8.6 dts:770400 dts_time:8.56 duration:0 duration_time:0 stream_index:0
[mpeg @ 0x121f14570] buffer underflow st=0 bufi=1134 size=3400
[mpeg @ 0x121f14570] buffer underflow st=0 bufi=3175 size=3400
pts:777600 pts_time:8.64 dts:774000 dts_time:8.6 duration:0 duration_time:0 stream_index:0
[mpeg @ 0x121f14570] buffer underflow st=0 bufi=1807 size=1911
pts:781200 pts_time:8.68 dts:777600 dts_time:8.64 duration:0 duration_time:0 stream_index:0
[mpeg @ 0x121f14570] buffer underflow st=0 bufi=1928 size=2045
pts:784800 pts_time:8.72 dts:781200 dts_time:8.68 duration:0 duration_time:0 stream_index:0
[mpeg @ 0x121f14570] buffer underflow st=0 bufi=1915 size=9677
[mpeg @ 0x121f14570] buffer underflow st=0 bufi=3956 size=9677
[mpeg @ 0x121f14570] buffer underflow st=0 bufi=5997 size=9677
[mpeg @ 0x121f14570] buffer underflow st=0 bufi=8038 size=9677
pts:788400 pts_time:8.76 dts:784800 dts_time:8.72 duration:0 duration_time:0 stream_index:0
[mpeg @ 0x121f14570] buffer underflow st=0 bufi=381 size=1624
pts:792000 pts_time:8.8 dts:788400 dts_time:8.76 duration:0 duration_time:0 stream_index:0
[mpeg @ 0x121f14570] buffer underflow st=0 bufi=789 size=2427
pts:795600 pts_time:8.84 dts:792000 dts_time:8.8 duration:0 duration_time:0 stream_index:0
[mpeg @ 0x121f14570] buffer underflow st=0 bufi=394 size=2730
[mpeg @ 0x121f14570] buffer underflow st=0 bufi=2435 size=2730
pts:799200 pts_time:8.88 dts:795600 dts_time:8.84 duration:0 duration_time:0 stream_index:0
[mpeg @ 0x121f14570] buffer underflow st=0 bufi=1737 size=2732
pts:802800 pts_time:8.92 dts:799200 dts_time:8.88 duration:0 duration_time:0 stream_index:0
[mpeg @ 0x121f14570] buffer underflow st=0 bufi=1037 size=1556
pts:806400 pts_time:8.96 dts:802800 dts_time:8.92 duration:0 duration_time:0 stream_index:0
[mpeg @ 0x121f14570] buffer underflow st=0 bufi=1513 size=1992
pts:810000 pts_time:9 dts:806400 dts_time:8.96 duration:0 duration_time:0 stream_index:0
[mpeg @ 0x121f14570] buffer underflow st=0 bufi=1553 size=2703
pts:813600 pts_time:9.04 dts:810000 dts_time:9 duration:0 duration_time:0 stream_index:0
[mpeg @ 0x121f14570] buffer underflow st=0 bufi=882 size=1677
pts:817200 pts_time:9.08 dts:813600 dts_time:9.04 duration:0 duration_time:0 stream_index:0
[mpeg @ 0x121f14570] buffer underflow st=0 bufi=1237 size=2766
pts:820800 pts_time:9.12 dts:817200 dts_time:9.08 duration:0 duration_time:0 stream_index:0
[mpeg @ 0x121f14570] buffer underflow st=0 bufi=503 size=2207
pts:824400 pts_time:9.16 dts:820800 dts_time:9.12 duration:0 duration_time:0 stream_index:0
[mpeg @ 0x121f14570] buffer underflow st=0 bufi=328 size=1914
pts:828000 pts_time:9.2 dts:824400 dts_time:9.16 duration:0 duration_time:0 stream_index:0
[mpeg @ 0x121f14570] buffer underflow st=0 bufi=446 size=10646
[mpeg @ 0x121f14570] buffer underflow st=0 bufi=2487 size=10646
[mpeg @ 0x121f14570] buffer underflow st=0 bufi=4528 size=10646
[mpeg @ 0x121f14570] buffer underflow st=0 bufi=6569 size=10646
[mpeg @ 0x121f14570] buffer underflow st=0 bufi=8610 size=10646
pts:831600 pts_time:9.24 dts:828000 dts_time:9.2 duration:0 duration_time:0 stream_index:0
[mpeg @ 0x121f14570] buffer underflow st=0 bufi=5 size=2608
[mpeg @ 0x121f14570] buffer underflow st=0 bufi=2046 size=2608
pts:835200 pts_time:9.28 dts:831600 dts_time:9.24 duration:0 duration_time:0 stream_index:0
[mpeg @ 0x121f14570] buffer underflow st=0 bufi=1470 size=2503
pts:838800 pts_time:9.32 dts:835200 dts_time:9.28 duration:0 duration_time:0 stream_index:0
[mpeg @ 0x121f14570] buffer underflow st=0 bufi=999 size=3552
[mpeg @ 0x121f14570] buffer underflow st=0 bufi=3040 size=3552
pts:842400 pts_time:9.36 dts:838800 dts_time:9.32 duration:0 duration_time:0 stream_index:0
[mpeg @ 0x121f14570] buffer underflow st=0 bufi=1520 size=2948
pts:846000 pts_time:9.4 dts:842400 dts_time:9.36 duration:0 duration_time:0 stream_index:0
[mpeg @ 0x121f14570] buffer underflow st=0 bufi=604 size=2224
pts:849600 pts_time:9.44 dts:846000 dts_time:9.4 duration:0 duration_time:0 stream_index:0
[mpeg @ 0x121f14570] buffer underflow st=0 bufi=412 size=2764
[mpeg @ 0x121f14570] buffer underflow st=0 bufi=2453 size=2764
pts:853200 pts_time:9.48 dts:849600 dts_time:9.44 duration:0 duration_time:0 stream_index:0
[mpeg @ 0x121f14570] buffer underflow st=0 bufi=1721 size=2773
pts:856800 pts_time:9.52 dts:853200 dts_time:9.48 duration:0 duration_time:0 stream_index:0
[mpeg @ 0x121f14570] buffer underflow st=0 bufi=980 size=2515
pts:860400 pts_time:9.56 dts:856800 dts_time:9.52 duration:0 duration_time:0 stream_index:0
[mpeg @ 0x121f14570] buffer underflow st=0 bufi=497 size=3050
[mpeg @ 0x121f14570] buffer underflow st=0 bufi=2538 size=3050
pts:864000 pts_time:9.6 dts:860400 dts_time:9.56 duration:0 duration_time:0 stream_index:0
[mpeg @ 0x121f14570] buffer underflow st=0 bufi=1520 size=2205
pts:867600 pts_time:9.64 dts:864000 dts_time:9.6 duration:0 duration_time:0 stream_index:0
[mpeg @ 0x121f14570] buffer underflow st=0 bufi=1347 size=2656
pts:871200 pts_time:9.68 dts:867600 dts_time:9.64 duration:0 duration_time:0 stream_index:0
[mpeg @ 0x121f14570] buffer underflow st=0 bufi=723 size=9887
[mpeg @ 0x121f14570] buffer underflow st=0 bufi=2764 size=9887
[mpeg @ 0x121f14570] buffer underflow st=0 bufi=4805 size=9887
[mpeg @ 0x121f14570] buffer underflow st=0 bufi=6846 size=9887
[mpeg @ 0x121f14570] buffer underflow st=0 bufi=8887 size=9887
pts:874800 pts_time:9.72 dts:871200 dts_time:9.68 duration:0 duration_time:0 stream_index:0
[mpeg @ 0x121f14570] buffer underflow st=0 bufi=1032 size=1727
pts:878400 pts_time:9.76 dts:874800 dts_time:9.72 duration:0 duration_time:0 stream_index:0
[mpeg @ 0x121f14570] buffer underflow st=0 bufi=1337 size=2438
pts:882000 pts_time:9.8 dts:878400 dts_time:9.76 duration:0 duration_time:0 stream_index:0
[mpeg @ 0x121f14570] buffer underflow st=0 bufi=931 size=3055
[mpeg @ 0x121f14570] buffer underflow st=0 bufi=2972 size=3055
pts:885600 pts_time:9.84 dts:882000 dts_time:9.8 duration:0 duration_time:0 stream_index:0
[mpeg @ 0x121f14570] buffer underflow st=0 bufi=1949 size=2784
pts:889200 pts_time:9.88 dts:885600 dts_time:9.84 duration:0 duration_time:0 stream_index:0
[mpeg @ 0x121f14570] buffer underflow st=0 bufi=1197 size=1515
pts:892800 pts_time:9.92 dts:889200 dts_time:9.88 duration:0 duration_time:0 stream_index:0
[mpeg @ 0x121f14570] buffer underflow st=0 bufi=1714 size=1784
[mpeg @ 0x121f14570] buffer underflow st=0 bufi=1962 size=2144
pts:896400 pts_time:9.96 dts:892800 dts_time:9.92 duration:0 duration_time:0 stream_index:0
pts:900000 pts_time:10 dts:896400 dts_time:9.96 duration:0 duration_time:0 stream_index:0
